<?xml version="1.0" encoding="UTF-8"?>
<svg version="1.1" xmlns="http://www.w3.org/2000/svg" width="1212" height="163">
<path d="M0 0 C20.4956432 16.23337135 32.45289703 40.35942852 44.77734375 62.828125 C63.41403434 97.56298327 63.41403434 97.56298327 95.125 119.1875 C95.77210938 119.41179687 96.41921875 119.63609375 97.0859375 119.8671875 C111.21834559 123.81992999 126.85992823 121.53758267 139.75 115.0625 C154.98894452 106.36755199 163.8877753 94.05405099 168.66699219 77.28588867 C171.99354195 62.04511299 168.65352063 46.35408741 160.75 33.1875 C151.80327424 20.20898795 138.96262089 12.51811429 123.74609375 8.5703125 C108.62128121 6.36132349 93.91970819 8.56375395 81.125 17.1875 C70.7709443 25.3568961 62.86890482 34.91253414 56.125 46.1875 C52.93464581 44.84734991 51.4929528 43.69857276 49.8359375 40.66796875 C49.45179688 39.97509766 49.06765625 39.28222656 48.671875 38.56835938 C48.28515625 37.84455078 47.8984375 37.12074219 47.5 36.375 C47.10554687 35.66279297 46.71109375 34.95058594 46.3046875 34.21679688 C45.21235733 32.22218722 44.16216911 30.21121228 43.125 28.1875 C42.64675781 27.28 42.16851563 26.3725 41.67578125 25.4375 C41.125 23.1875 41.125 23.1875 42.14453125 21.08203125 C42.73621094 20.39496094 43.32789063 19.70789062 43.9375 19 C44.92943359 17.83404297 44.92943359 17.83404297 45.94140625 16.64453125 C46.66199219 15.83371094 47.38257813 15.02289062 48.125 14.1875 C48.81464844 13.36636719 49.50429688 12.54523437 50.21484375 11.69921875 C62.6439661 -2.75272641 79.74710376 -14.51822081 99.125 -16.8125 C124.85170672 -18.73055036 147.09587528 -14.04090384 167.22265625 2.62109375 C184.97542047 18.31902927 193.46681393 38.33532789 195.40625 61.5546875 C196.0920359 84.47136637 187.27131957 106.12567513 171.6171875 122.78125 C154.43213736 139.37371221 133.6037903 146.89152282 109.98828125 146.65625 C86.84025711 145.95212759 66.67034302 135.59376308 50.875 118.875 C37.68590748 103.61454359 28.02760823 85.44688042 18.57910156 67.72387695 C5.96559585 44.09579044 -8.18093298 18.77887521 -34.83984375 9.50390625 C-50.00344304 5.28371067 -67.05579322 8.08384546 -80.5625 15.6875 C-83.41650052 17.42437445 -85.72430449 19.03600434 -88.08203125 21.40625 C-89.875 23.1875 -89.875 23.1875 -91.875 23.1875 C-92.14699219 23.77402344 -92.41898438 24.36054687 -92.69921875 24.96484375 C-93.85219136 27.14438333 -95.12942289 28.84659709 -96.6875 30.75 C-105.00079067 41.73976474 -109.46346024 56.42679385 -107.875 70.1875 C-104.80112377 87.32826748 -97.62408469 101.64191128 -82.95703125 111.8828125 C-69.31612318 120.43077366 -54.14212591 123.55015646 -38.28515625 120.49609375 C-16.37193836 114.26867511 -5.07519951 99.25878527 7.125 81.1875 C10.81884257 84.60509222 12.8952547 88.76292397 15.3125 93.125 C15.77591797 93.93646484 16.23933594 94.74792969 16.71679688 95.58398438 C17.15443359 96.36966797 17.59207031 97.15535156 18.04296875 97.96484375 C18.44281982 98.67890381 18.8426709 99.39296387 19.25463867 100.12866211 C20.125 102.1875 20.125 102.1875 20.125 106.1875 C17.80796021 109.78617216 14.91437372 112.94642469 12.125 116.1875 C11.40441406 117.0434375 10.68382812 117.899375 9.94140625 118.78125 C-2.88820221 133.60047688 -20.76883209 144.86801597 -40.7109375 146.40625 C-66.93366435 147.72729417 -88.13315586 141.34015295 -108.23046875 124.17578125 C-122.9587377 110.46150672 -132.12989798 90.2166023 -133.19140625 70.234375 C-134.00873465 45.17887273 -125.91670812 23.99846566 -108.75 5.5625 C-78.96969163 -23.08821047 -32.5116842 -24.60997557 0 0 Z " fill="#E67E22" transform="translate(859.875,16.8125)"/>
<path d="M0 0 C0.94617188 -0.02835938 1.89234375 -0.05671875 2.8671875 -0.0859375 C7.14682025 -0.09795894 9.79507146 -0.06069925 13.39453125 2.37109375 C16.53836805 6.78127461 19.26700716 11.35314526 21.9375 16.0625 C22.5363501 17.10374023 23.1352002 18.14498047 23.75219727 19.21777344 C25.3761549 22.04542929 26.9928741 24.87705993 28.60583496 27.71099854 C30.34976737 30.77222759 32.10119326 33.82916724 33.8515625 36.88671875 C36.55104942 41.60366695 39.24398935 46.32428161 41.93359375 51.046875 C45.45614494 57.2223271 49.03033901 63.36625857 52.625 69.5 C59.47182928 58.01981743 66.22982546 46.49347943 72.84216309 34.87683105 C82.74246073 17.4854915 82.74246073 17.4854915 86.875 10.5 C87.51953125 9.406875 88.1640625 8.31375 88.828125 7.1875 C89.42109375 6.300625 90.0140625 5.41375 90.625 4.5 C91.38683594 3.33597656 91.38683594 3.33597656 92.1640625 2.1484375 C96.32257413 -0.63710521 100.8765877 0.00644067 105.75 0.125 C106.76449219 0.12628906 107.77898437 0.12757812 108.82421875 0.12890625 C116.34402375 0.21902375 116.34402375 0.21902375 118.625 2.5 C118.87668228 4.86447144 118.87668228 4.86447144 118.87896729 7.89013672 C118.88742676 9.60641266 118.88742676 9.60641266 118.89605713 11.35736084 C118.88998444 13.24941254 118.88998444 13.24941254 118.88378906 15.1796875 C118.88649803 16.51662385 118.89005843 17.85355871 118.89440918 19.19049072 C118.90354675 22.82679129 118.89998334 26.4629787 118.89365101 30.09928131 C118.88859807 33.89936129 118.89328049 37.69943138 118.89642334 41.49951172 C118.90006505 47.88185369 118.89525853 54.26414942 118.88574219 60.64648438 C118.87485723 68.03214409 118.87838266 75.41769341 118.889395 82.80335045 C118.89846205 89.13713719 118.89975601 95.47089064 118.89451766 101.80468178 C118.89139474 105.59081457 118.89099739 109.37689542 118.89759064 113.1630249 C118.90335505 116.72199438 118.89938396 120.28082108 118.88780212 123.83977509 C118.88388278 125.7740611 118.8898489 127.70835914 118.89605713 129.64263916 C118.89041748 130.78682312 118.88477783 131.93100708 118.87896729 133.10986328 C118.87783621 134.6075676 118.87783621 134.6075676 118.87668228 136.13552856 C118.625 138.5 118.625 138.5 116.625 140.5 C112.8325729 140.98097498 109.00696721 140.87038433 105.1875 140.875 C104.12466797 140.89949219 103.06183594 140.92398438 101.96679688 140.94921875 C100.94779297 140.95308594 99.92878906 140.95695313 98.87890625 140.9609375 C97.94377197 140.96915527 97.0086377 140.97737305 96.04516602 140.98583984 C93.625 140.5 93.625 140.5 92.00076294 138.9225769 C90.11470905 135.60143017 90.22503873 133.06455408 90.19262695 129.25292969 C90.17733948 128.1694072 90.17733948 128.1694072 90.16174316 127.06399536 C90.13161803 124.68320963 90.12234827 122.30282627 90.11328125 119.921875 C90.09643415 118.26848005 90.07828386 116.61509792 90.05888367 114.96173096 C90.01138068 110.61511232 89.98157336 106.2685456 89.95544434 101.92175293 C89.92564026 97.48418931 89.87910942 93.04680459 89.83398438 88.609375 C89.74794787 79.90633789 89.68060426 71.20328449 89.625 62.5 C87.40675217 66.29640819 85.18961309 70.0934628 82.97265625 73.890625 C82.35152954 74.95361816 81.73040283 76.01661133 81.0904541 77.11181641 C76.98300767 84.14853133 72.87644145 91.18700647 68.91809082 98.30908203 C66.6434274 102.25627 64.59341548 105.19410578 60.625 107.5 C57.78744449 107.92156306 55.44695395 108.10675574 52.625 108.0625 C51.57699219 108.09827148 51.57699219 108.09827148 50.5078125 108.13476562 C46.79952373 108.12427047 44.86574958 107.68375721 41.90234375 105.421875 C39.34033026 102.13476336 37.24222875 98.80381537 35.1875 95.1875 C30.9255275 87.73224847 26.60817881 80.30995226 22.27734375 72.89453125 C21.63470581 71.79355103 20.99206787 70.6925708 20.32995605 69.55822754 C18.76194193 66.87197369 17.19361741 64.1859016 15.625 61.5 C15.61691315 62.44547195 15.60882629 63.39094391 15.60049438 64.36506653 C15.52306947 73.26751972 15.43533953 82.16981939 15.33747292 91.07207203 C15.28748901 95.64900992 15.2411592 100.22592449 15.203125 104.80297852 C15.16629859 109.21861751 15.11994594 113.63406241 15.06693649 118.04953575 C15.04837845 119.73562916 15.03327571 121.4217642 15.02165604 123.10791969 C15.00481756 125.46643654 14.97578892 127.82450749 14.94384766 130.18286133 C14.94168747 130.88273163 14.93952728 131.58260193 14.93730164 132.30368042 C14.87453999 135.92202916 14.69209762 137.39935356 12.625 140.5 C10.33422852 140.88818359 10.33422852 140.88818359 7.50390625 140.8984375 C6.48619141 140.90230469 5.46847656 140.90617188 4.41992188 140.91015625 C3.35322266 140.89855469 2.28652344 140.88695312 1.1875 140.875 C0.12466797 140.88660156 -0.93816406 140.89820313 -2.03320312 140.91015625 C-3.56170898 140.90435547 -3.56170898 140.90435547 -5.12109375 140.8984375 C-6.05622803 140.89505371 -6.9913623 140.89166992 -7.95483398 140.88818359 C-10.89644222 140.41636305 -11.59524546 139.85343466 -13.375 137.5 C-13.75252342 135.04650879 -13.75252342 135.04650879 -13.75595093 132.07226562 C-13.7644104 130.94498047 -13.77286987 129.81769531 -13.78158569 128.65625 C-13.775513 127.41875 -13.76944031 126.18125 -13.76318359 124.90625 C-13.76844055 123.60365234 -13.77369751 122.30105469 -13.77911377 120.95898438 C-13.79280351 117.38460947 -13.78748204 113.81049401 -13.77797651 110.2361145 C-13.77038843 106.49789727 -13.77742315 102.75970246 -13.78213501 99.02148438 C-13.78759506 92.74344895 -13.78039446 86.46551936 -13.76611328 80.1875 C-13.74978622 72.92619089 -13.75507455 65.66513447 -13.7715925 58.40383148 C-13.78520031 52.17275579 -13.7871305 45.94175622 -13.77927649 39.71067047 C-13.77459606 35.98765419 -13.77398517 32.26475673 -13.78388596 28.54174805 C-13.79414981 24.39226278 -13.77992979 20.24321409 -13.76318359 16.09375 C-13.76925629 14.85625 -13.77532898 13.61875 -13.78158569 12.34375 C-13.77312622 11.21646484 -13.76466675 10.08917969 -13.75595093 8.92773438 C-13.75481985 7.94623413 -13.75368877 6.96473389 -13.75252342 5.95349121 C-12.63442572 -1.31292649 -5.79571401 -0.01566409 0 0 Z " fill="#222222" transform="translate(178.375,11.5)"/>
<path d="M0 0 C0.94617188 -0.01998047 1.89234375 -0.03996094 2.8671875 -0.06054688 C3.785 -0.05990234 4.7028125 -0.05925781 5.6484375 -0.05859375 C6.90019775 -0.06137329 6.90019775 -0.06137329 8.17724609 -0.06420898 C13.26947713 0.97953077 15.81607853 4.52699833 18.63256836 8.61328125 C19.75162581 10.32010847 20.8618602 12.0327417 21.96484375 13.75 C22.56825089 14.67353271 23.17165802 15.59706543 23.79335022 16.54858398 C25.72429704 19.50650057 27.64401318 22.47148991 29.5625 25.4375 C32.06701289 29.29467621 34.57656138 33.14853251 37.08984375 37 C37.71378021 37.95688721 38.33771667 38.91377441 38.9805603 39.8996582 C43.69222086 47.09286584 48.55166957 54.17000398 53.53440857 61.17797852 C58.72396043 68.49184242 63.67260986 75.96206561 68.625 83.4375 C68.63379936 81.96624664 68.63379936 81.96624664 68.64277649 80.465271 C68.69997405 71.22461714 68.77272003 61.98419928 68.86071491 52.74378586 C68.90545438 47.99310754 68.94470257 43.24251569 68.97143555 38.49169922 C68.99743291 33.90741617 69.03780987 29.32346523 69.08818626 24.73938751 C69.10487916 22.98993305 69.11637834 21.24042112 69.12261391 19.49089813 C69.1322288 17.04142896 69.1602557 14.59281409 69.19262695 12.14355469 C69.19047432 11.05706383 69.19047432 11.05706383 69.1882782 9.94862366 C69.24633486 6.84525021 69.46860891 4.71614957 71.00076294 1.98623657 C73.28014832 -0.18719463 74.76663315 -0.05078754 77.87890625 -0.0234375 C78.89791016 -0.01957031 79.91691406 -0.01570312 80.96679688 -0.01171875 C82.02962891 0.01277344 83.09246094 0.03726562 84.1875 0.0625 C85.25419922 0.06378906 86.32089844 0.06507812 87.41992188 0.06640625 C95.34424047 0.15674047 95.34424047 0.15674047 97.625 2.4375 C97.87668228 4.80197144 97.87668228 4.80197144 97.87896729 7.82763672 C97.88460693 8.97182068 97.89024658 10.11600464 97.89605713 11.29486084 C97.89200867 12.55622864 97.88796021 13.81759644 97.88378906 15.1171875 C97.88649803 16.45412385 97.89005843 17.79105871 97.89440918 19.12799072 C97.90354675 22.76429129 97.89998334 26.4004787 97.89365101 30.03678131 C97.88859807 33.83686129 97.89328049 37.63693138 97.89642334 41.43701172 C97.90006505 47.81935369 97.89525853 54.20164942 97.88574219 60.58398438 C97.87485723 67.96964409 97.87838266 75.35519341 97.889395 82.74085045 C97.89846205 89.07463719 97.89975601 95.40839064 97.89451766 101.74218178 C97.89139474 105.52831457 97.89099739 109.31439542 97.89759064 113.1005249 C97.90335505 116.65949438 97.89938396 120.21832108 97.88780212 123.77727509 C97.88388278 125.7115611 97.8898489 127.64585914 97.89605713 129.58013916 C97.89041748 130.72432312 97.88477783 131.86850708 97.87896729 133.04736328 C97.87821323 134.04583282 97.87745918 135.04430237 97.87668228 136.07302856 C97.625 138.4375 97.625 138.4375 95.625 140.4375 C92.08839598 141.02376681 88.51682931 140.99335648 84.9375 141.0625 C83.46506836 141.14951172 83.46506836 141.14951172 81.96289062 141.23828125 C78.1327738 141.30507068 74.96818479 141.34254742 71.72167969 139.1550293 C69.76737612 137.03959657 68.22001259 134.83811157 66.625 132.4375 C65.85214448 131.32049137 65.07804773 130.20434093 64.30297852 129.08886719 C62.04769052 125.80657279 59.84992185 122.48903227 57.66595459 119.15896606 C55.24193517 115.46296077 52.79887843 111.77954498 50.359375 108.09375 C49.87165619 107.35556534 49.38393738 106.61738068 48.88143921 105.85682678 C43.8625714 98.26631856 38.74633323 90.7446731 33.60791016 83.23461914 C27.53897217 74.35198745 21.58116925 65.39595006 15.625 56.4375 C15.61691315 57.44561234 15.60882629 58.45372467 15.60049438 59.49238586 C15.52307801 68.98347778 15.43535022 78.47442555 15.33747292 87.96532917 C15.2874836 92.84493976 15.24115382 97.72452842 15.203125 102.60424805 C15.16630546 107.31165322 15.11995464 112.01887608 15.06693649 116.72612572 C15.0483748 118.52386471 15.03327343 120.3216428 15.02165604 122.11944008 C15.00482386 124.63360978 14.97579654 127.14736034 14.94384766 129.66137695 C14.94168747 130.40800095 14.93952728 131.15462494 14.93730164 131.9238739 C14.87688309 135.63483161 14.73817084 137.26774374 12.625 140.4375 C10.33422852 140.82568359 10.33422852 140.82568359 7.50390625 140.8359375 C6.48619141 140.83980469 5.46847656 140.84367188 4.41992188 140.84765625 C3.35322266 140.83605469 2.28652344 140.82445312 1.1875 140.8125 C0.12466797 140.82410156 -0.93816406 140.83570313 -2.03320312 140.84765625 C-3.56170898 140.84185547 -3.56170898 140.84185547 -5.12109375 140.8359375 C-6.05622803 140.83255371 -6.9913623 140.82916992 -7.95483398 140.82568359 C-10.89644222 140.35386305 -11.59524546 139.79093466 -13.375 137.4375 C-13.75252342 134.98400879 -13.75252342 134.98400879 -13.75595093 132.00976562 C-13.7644104 130.88248047 -13.77286987 129.75519531 -13.78158569 128.59375 C-13.775513 127.35625 -13.76944031 126.11875 -13.76318359 124.84375 C-13.76844055 123.54115234 -13.77369751 122.23855469 -13.77911377 120.89648438 C-13.79280351 117.32210947 -13.78748204 113.74799401 -13.77797651 110.1736145 C-13.77038843 106.43539727 -13.77742315 102.69720246 -13.78213501 98.95898438 C-13.78759506 92.68094895 -13.78039446 86.40301936 -13.76611328 80.125 C-13.74978622 72.86369089 -13.75507455 65.60263447 -13.7715925 58.34133148 C-13.78520031 52.11025579 -13.7871305 45.87925622 -13.77927649 39.64817047 C-13.77459606 35.92515419 -13.77398517 32.20225673 -13.78388596 28.47924805 C-13.79414981 24.32976278 -13.77992979 20.18071409 -13.76318359 16.03125 C-13.76925629 14.79375 -13.77532898 13.55625 -13.78158569 12.28125 C-13.77312622 11.15396484 -13.76466675 10.02667969 -13.75595093 8.86523438 C-13.75481985 7.88373413 -13.75368877 6.90223389 -13.75252342 5.89099121 C-12.63174265 -1.39286355 -5.79727075 -0.04308782 0 0 Z " fill="#222222" transform="translate(360.375,11.5625)"/>
<path d="M0 0 C1.2959761 -0.01268417 2.59195221 -0.02536835 3.92720032 -0.03843689 C5.34754596 -0.03638322 6.76789052 -0.03339335 8.18823242 -0.02954102 C9.65256492 -0.03410615 11.11689527 -0.03941271 12.58122253 -0.04542542 C15.65889139 -0.05437166 18.73630113 -0.05192335 21.81396484 -0.04199219 C25.71954039 -0.03060655 29.62419769 -0.05054319 33.5296526 -0.07990932 C36.56100485 -0.09846348 39.59214594 -0.09793942 42.62354088 -0.0922718 C44.06055662 -0.09212035 45.49758835 -0.09801646 46.93454933 -0.11056328 C62.968469 -0.23064969 78.97054123 3.43787706 91.11010742 14.58764648 C104.4179555 29.49884976 107.29333829 49.00740025 107.12231445 68.25854492 C107.10620121 70.40404761 107.12229764 72.54766796 107.14135742 74.69311523 C107.1699093 93.1590731 103.88508732 112.22250517 90.99291992 126.30249023 C78.18038145 138.45185384 61.94843357 140.8852966 45.00854492 140.80249023 C43.53072466 140.8045164 42.05290538 140.80743233 40.5750885 140.81118774 C37.50503857 140.81557319 34.43525322 140.8092953 31.36523438 140.79516602 C27.43094475 140.77793914 23.49726317 140.78802315 19.56299496 140.80588341 C16.52353804 140.81670847 13.4842263 140.81328322 10.44476509 140.80550003 C8.99308766 140.80350149 7.54139699 140.80594517 6.08973503 140.81293869 C4.07040532 140.8205461 2.0510291 140.80689767 0.03173828 140.79223633 C-1.11565323 140.78984955 -2.26304474 140.78746277 -3.44520569 140.78500366 C-6.26879883 140.40405273 -6.26879883 140.40405273 -7.92146397 139.2194767 C-9.77081434 136.72762773 -9.64619021 135.06513707 -9.64974976 131.97631836 C-9.65820923 130.8490332 -9.6666687 129.72174805 -9.67538452 128.56030273 C-9.66931183 127.32280273 -9.66323914 126.08530273 -9.65698242 124.81030273 C-9.66223938 123.50770508 -9.66749634 122.20510742 -9.6729126 120.86303711 C-9.68660234 117.28866221 -9.68128087 113.71454674 -9.67177534 110.14016724 C-9.66418726 106.40195001 -9.67122198 102.6637552 -9.67593384 98.92553711 C-9.68139389 92.64750169 -9.67419329 86.36957209 -9.65991211 80.09155273 C-9.64358505 72.83024362 -9.64887338 65.5691872 -9.66539133 58.30788422 C-9.67899914 52.07680852 -9.68092933 45.84580896 -9.67307532 39.61472321 C-9.66839489 35.89170692 -9.667784 32.16880946 -9.67768478 28.44580078 C-9.68794864 24.29631551 -9.67372862 20.14726682 -9.65698242 15.99780273 C-9.66305511 14.76030273 -9.66912781 13.52280273 -9.67538452 12.24780273 C-9.66692505 11.12051758 -9.65846558 9.99323242 -9.64974976 8.83178711 C-9.64861868 7.85028687 -9.6474876 6.86878662 -9.64632225 5.85754395 C-9.26879883 3.40405273 -9.26879883 3.40405273 -7.92062283 1.58904934 C-5.35552646 -0.25111674 -3.12125248 0.01477544 0 0 Z M18.73120117 25.40405273 C18.73120117 55.10405273 18.73120117 84.80405273 18.73120117 115.40405273 C46.32864874 117.1267531 46.32864874 117.1267531 70.48120117 106.27905273 C79.10540977 97.12321484 78.93920517 84.75921113 78.97143555 72.9387207 C78.98108084 70.8056649 79.01212565 68.67359942 79.04370117 66.54077148 C79.13229849 55.05003382 78.52932026 43.60206118 70.27026367 34.85717773 C56.48821138 21.78687462 36.20498701 25.40405273 18.73120117 25.40405273 Z " fill="#222222" transform="translate(1104.268798828125,11.595947265625)"/>
<path d="M0 0 C1.15113281 -0.01611328 2.30226562 -0.03222656 3.48828125 -0.04882812 C13.92058411 -0.05470879 23.46901973 1.5387172 32.625 6.6875 C33.65367188 7.25210937 34.68234375 7.81671875 35.7421875 8.3984375 C48.67527638 16.62858497 55.14114798 28.84487004 58.75 43.3125 C59.72741955 48.90733895 59.91070406 54.32187042 59.91796875 59.98046875 C59.92296135 61.35456657 59.92296135 61.35456657 59.92805481 62.75642395 C59.93309779 64.68860373 59.93546395 66.62079216 59.93530273 68.55297852 C59.93748033 71.4736203 59.95563981 74.39387844 59.97460938 77.31445312 C60.03365156 96.60125621 58.20641182 114.57825763 44.71875 129.5703125 C32.32591269 141.37942921 16.89518572 144.85792852 0.25 144.6875 C-0.88308594 144.69910156 -2.01617187 144.71070313 -3.18359375 144.72265625 C-18.10827104 144.6713687 -32.56786094 140.44054944 -43.69921875 130.02734375 C-57.88671922 114.33889864 -59.7822976 94.94139025 -59.58618164 74.67480469 C-59.56239686 72.05112277 -59.56567448 69.42845161 -59.57226562 66.8046875 C-59.54242308 48.19270632 -57.48715509 29.58874917 -44.25 15.3125 C-31.46839189 3.82871671 -16.76319427 -0.04630717 0 0 Z M-21.125 32.75 C-21.82625 33.595625 -22.5275 34.44125 -23.25 35.3125 C-23.95125 36.075625 -24.6525 36.83875 -25.375 37.625 C-30.57603418 45.07981566 -31.40047918 53.44680965 -31.453125 62.3515625 C-31.45882507 63.11367035 -31.46452515 63.8757782 -31.47039795 64.66098022 C-31.47980604 66.26957836 -31.48636517 67.87819541 -31.49023438 69.48681641 C-31.49988857 71.90953592 -31.53092981 74.33138714 -31.5625 76.75390625 C-31.64730596 89.05938563 -31.22537411 101.87063035 -22.25 111.3125 C-12.5432787 118.58104012 -3.05576022 119.36914505 8.75 118.3125 C15.79119239 116.69504757 21.98408835 113.3342434 26.15234375 107.2734375 C30.76030548 99.5000064 32.0608924 92.03342172 32.05078125 83.1328125 C32.05720894 81.85360428 32.05720894 81.85360428 32.06376648 80.54855347 C32.06947585 78.75519696 32.07003527 76.96181732 32.06567383 75.16845703 C32.06251655 72.45173907 32.08600612 69.73611484 32.11132812 67.01953125 C32.15777511 54.52435857 31.64878553 43.00681105 22.75 33.3125 C10.35546738 23.99212476 -8.78569075 22.28841173 -21.125 32.75 Z " fill="#222222" transform="translate(60.25,9.6875)"/>
<path d="M0 0 C0.89455399 -0.00365067 1.78910797 -0.00730133 2.71076965 -0.01106262 C5.67187397 -0.01917819 8.63243283 -0.00555067 11.59350586 0.0090332 C13.64708964 0.00955164 15.70067392 0.00903457 17.7542572 0.00752258 C22.05922854 0.00761235 26.36401278 0.01805157 30.66894531 0.03613281 C36.19640732 0.05883433 41.72359615 0.05936196 47.25109196 0.05261517 C51.49147484 0.04927944 55.73179505 0.05589755 59.97216606 0.0657444 C62.01079417 0.06960247 64.04942924 0.07074212 66.08806038 0.06915855 C68.93254089 0.06878913 71.77666639 0.08137304 74.62109375 0.09765625 C75.89364014 0.09394012 75.89364014 0.09394012 77.19189453 0.09014893 C83.01710759 0.14357244 83.01710759 0.14357244 85.24584961 2.37231445 C85.50463867 4.49536133 85.50463867 4.49536133 85.51147461 7.09106445 C85.5153418 8.48905273 85.5153418 8.48905273 85.51928711 9.9152832 C85.51155273 10.89110352 85.50381836 11.86692383 85.49584961 12.87231445 C85.50745117 14.33604492 85.50745117 14.33604492 85.51928711 15.8293457 C85.51670898 16.76133789 85.51413086 17.69333008 85.51147461 18.65356445 C85.50921875 19.51014648 85.50696289 20.36672852 85.50463867 21.24926758 C85.24584961 23.37231445 85.24584961 23.37231445 83.24584961 25.37231445 C80.46176147 25.61282349 80.46176147 25.61282349 76.8684082 25.59936523 C76.21462692 25.59965729 75.56084564 25.59994934 74.88725281 25.60025024 C72.72279664 25.5988551 70.55868325 25.58328565 68.39428711 25.56762695 C66.89499093 25.56389747 65.39569231 25.56105019 63.89639282 25.55905151 C59.94748218 25.55140994 55.99871832 25.53175705 52.04986572 25.50964355 C47.31337518 25.48560227 42.57683559 25.47640663 37.84030151 25.46473694 C30.64204875 25.44533284 23.44411814 25.40701419 16.24584961 25.37231445 C16.24584961 37.91231445 16.24584961 50.45231445 16.24584961 63.37231445 C20.60288086 63.33750977 24.95991211 63.30270508 29.44897461 63.2668457 C32.92505128 63.24755017 36.40111281 63.23128273 39.87721252 63.2170639 C43.54561119 63.20122772 47.21380161 63.18006869 50.88208008 63.14599609 C54.41582043 63.11337888 57.94935894 63.09545657 61.48323822 63.08768272 C63.48630942 63.07944914 65.48929954 63.05603338 67.49224854 63.03242493 C68.71321228 63.03219833 69.93417603 63.03197174 71.19213867 63.03173828 C72.26691467 63.02507645 73.34169067 63.01841461 74.44903564 63.0115509 C77.61218808 63.41956878 78.97992333 64.16290508 81.24584961 66.37231445 C81.74755859 68.5012207 81.74755859 68.5012207 81.74194336 70.93481445 C81.74258789 71.81395508 81.74323242 72.6930957 81.74389648 73.59887695 C81.72391602 74.51411133 81.70393555 75.4293457 81.68334961 76.37231445 C81.69043945 77.28754883 81.6975293 78.2027832 81.70483398 79.14575195 C81.64124881 85.81730433 81.64124881 85.81730433 80.09759521 87.98408508 C77.44497892 89.97271669 75.50655604 89.73292727 72.21386719 89.71289062 C70.35227715 89.71255074 70.35227715 89.71255074 68.45307922 89.71220398 C67.09884277 89.69688413 65.74461 89.68123615 64.39038086 89.6652832 C63.00461791 89.65968697 61.61884901 89.655417 60.233078 89.65242004 C56.58822197 89.64097328 52.94372538 89.61150803 49.29901123 89.57830811 C45.57886619 89.5476033 41.858663 89.53391386 38.13842773 89.51879883 C30.84073794 89.48663776 23.54334417 89.43544396 16.24584961 89.37231445 C16.25029083 89.96700027 16.25473206 90.5616861 16.25930786 91.1743927 C16.30349836 97.35468141 16.33369819 103.53492536 16.35571289 109.71533203 C16.36578068 112.02296776 16.37943584 114.3305907 16.39672852 116.63818359 C16.42094248 119.95193637 16.43232487 123.26552072 16.44116211 126.5793457 C16.45148468 127.61380325 16.46180725 128.6482608 16.47244263 129.71406555 C16.47259369 130.67483505 16.47274475 131.63560455 16.47290039 132.62548828 C16.47734161 133.47154129 16.48178284 134.3175943 16.48635864 135.18928528 C16.24584961 137.37231445 16.24584961 137.37231445 14.24584961 140.37231445 C11.95507812 140.76049805 11.95507812 140.76049805 9.12475586 140.77075195 C8.10704102 140.77461914 7.08932617 140.77848633 6.04077148 140.7824707 C4.97407227 140.77086914 3.90737305 140.75926758 2.80834961 140.74731445 C1.74551758 140.75891602 0.68268555 140.77051758 -0.41235352 140.7824707 C-1.94085937 140.77666992 -1.94085937 140.77666992 -3.50024414 140.77075195 C-4.43537842 140.76736816 -5.3705127 140.76398438 -6.33398438 140.76049805 C-9.27559261 140.2886775 -9.97439585 139.72574912 -11.75415039 137.37231445 C-12.13167381 134.91882324 -12.13167381 134.91882324 -12.13510132 131.94458008 C-12.14356079 130.81729492 -12.15202026 129.69000977 -12.16073608 128.52856445 C-12.15466339 127.29106445 -12.1485907 126.05356445 -12.14233398 124.77856445 C-12.14759094 123.4759668 -12.1528479 122.17336914 -12.15826416 120.83129883 C-12.1719539 117.25692392 -12.16663243 113.68280846 -12.1571269 110.10842896 C-12.14953882 106.37021173 -12.15657354 102.63201692 -12.1612854 98.89379883 C-12.16674545 92.61576341 -12.15954485 86.33783381 -12.14526367 80.05981445 C-12.12893661 72.79850534 -12.13422494 65.53744892 -12.15074289 58.27614594 C-12.1643507 52.04507024 -12.16628089 45.81407068 -12.15842688 39.58298492 C-12.15374646 35.85996864 -12.15313556 32.13707118 -12.16303635 28.4140625 C-12.1733002 24.26457723 -12.15908018 20.11552854 -12.14233398 15.96606445 C-12.14840668 14.72856445 -12.15447937 13.49106445 -12.16073608 12.21606445 C-12.15227661 11.0887793 -12.14381714 9.96149414 -12.13510132 8.80004883 C-12.13397024 7.81854858 -12.13283916 6.83704834 -12.13167381 5.82580566 C-11.75415039 3.37231445 -11.75415039 3.37231445 -10.47033978 1.55646992 C-7.38692739 -0.5710573 -3.6187672 -0.03268297 0 0 Z " fill="#222222" transform="translate(598.754150390625,11.627685546875)"/>
<path d="M0 0 C1.01900391 -0.00386719 2.03800781 -0.00773438 3.08789062 -0.01171875 C4.15072266 -0.00011719 5.21355469 0.01148438 6.30859375 0.0234375 C7.37529297 0.01183594 8.44199219 0.00023437 9.54101562 -0.01171875 C11.06758789 -0.00591797 11.06758789 -0.00591797 12.625 0 C14.02600952 0.00507568 14.02600952 0.00507568 15.45532227 0.01025391 C16.21127686 0.13835449 16.96723145 0.26645508 17.74609375 0.3984375 C19.99343648 3.7694516 19.99703138 4.88266393 20.00006104 8.82617188 C20.00570068 9.95345703 20.01134033 11.08074219 20.01715088 12.2421875 C20.01310242 13.4796875 20.00905396 14.7171875 20.00488281 15.9921875 C20.00838745 17.29478516 20.01189209 18.59738281 20.01550293 19.93945312 C20.0246293 23.51378084 20.02108169 27.08799324 20.01474476 30.662323 C20.00968604 34.40053623 20.01437585 38.13873951 20.01751709 41.87695312 C20.02115711 48.15496597 20.0163567 54.43293179 20.00683594 60.7109375 C19.9959513 67.97219868 19.99947685 75.23334756 20.01048875 82.49460602 C20.01956061 88.72566948 20.0208474 94.9566991 20.01561141 101.18776703 C20.01249115 104.9107599 20.0120839 108.63369996 20.01868439 112.35668945 C20.02552682 116.50608996 20.01604675 120.65529641 20.00488281 124.8046875 C20.00893127 126.0421875 20.01297974 127.2796875 20.01715088 128.5546875 C20.01151123 129.68197266 20.00587158 130.80925781 20.00006104 131.97070312 C19.99930698 132.95220337 19.99855293 133.93370361 19.99777603 134.94494629 C19.74609375 137.3984375 19.74609375 137.3984375 17.74609375 140.3984375 C15.45532227 140.78662109 15.45532227 140.78662109 12.625 140.796875 C11.60728516 140.80074219 10.58957031 140.80460938 9.54101562 140.80859375 C8.47431641 140.79699219 7.40761719 140.78539062 6.30859375 140.7734375 C5.24576172 140.78503906 4.18292969 140.79664063 3.08789062 140.80859375 C1.55938477 140.80279297 1.55938477 140.80279297 0 140.796875 C-0.93513428 140.79349121 -1.87026855 140.79010742 -2.83374023 140.78662109 C-5.77534847 140.31480055 -6.47415171 139.75187216 -8.25390625 137.3984375 C-8.63142967 134.94494629 -8.63142967 134.94494629 -8.63485718 131.97070312 C-8.64331665 130.84341797 -8.65177612 129.71613281 -8.66049194 128.5546875 C-8.65441925 127.3171875 -8.64834656 126.0796875 -8.64208984 124.8046875 C-8.6473468 123.50208984 -8.65260376 122.19949219 -8.65802002 120.85742188 C-8.67170976 117.28304697 -8.66638829 113.70893151 -8.65688276 110.134552 C-8.64929468 106.39633477 -8.6563294 102.65813996 -8.66104126 98.91992188 C-8.66650131 92.64188645 -8.65930071 86.36395686 -8.64501953 80.0859375 C-8.62869247 72.82462839 -8.6339808 65.56357197 -8.65049875 58.30226898 C-8.66410656 52.07119329 -8.66603675 45.84019372 -8.65818274 39.60910797 C-8.65350231 35.88609169 -8.65289142 32.16319423 -8.66279221 28.44018555 C-8.67305606 24.29070028 -8.65883604 20.14165159 -8.64208984 15.9921875 C-8.64816254 14.7546875 -8.65423523 13.5171875 -8.66049194 12.2421875 C-8.65203247 11.11490234 -8.643573 9.98761719 -8.63485718 8.82617188 C-8.6337261 7.84467163 -8.63259502 6.86317139 -8.63142967 5.85192871 C-8.25390625 3.3984375 -8.25390625 3.3984375 -6.88135719 1.58346558 C-4.56626113 -0.10227116 -2.84223293 0.01028464 0 0 Z " fill="#222222" transform="translate(517.25390625,11.6015625)"/>
</svg>
